PathFileType	4	(X/Y/Z)	D:\TRACE\spot_10-12-23\spot_arm_motion_2_5-platform.trc
DataRate	CameraRate	NumFrames	NumMarkers	Units	OrigDataRate	OrigDataStartFrame	OrigNumFrames
100.00	100.00	      42	5	mm	100.00	5251	      7000
Frame#	Time	Left_Front			Right_Front			Left_Aft			Right_Aft			Post			
		X1	Y1	Z1	X2	Y2	Z2	X3	Y3	Z3	X4	Y4	Z4	X5	Y5	Z5	

5251	52.500	-808.38794	8.16853	-641.23120	764.12653	12.73160	-634.27435	-725.51300	3.81957	496.99701	691.87372	8.07594	582.99500	-25.70284	747.20044	-957.05127	
5252	52.510	-809.62897	6.89269	-641.45459	763.00256	11.47535	-634.49890	-726.50989	4.90511	496.46750	690.87543	9.27270	582.56506	-26.50858	745.03400	-958.71619	
5253	52.520	-810.53802	5.49315	-641.83472	762.10278	9.73437	-634.81891	-727.52319	5.73751	496.14392	689.83191	10.23791	582.27350	-27.45055	742.97711	-960.73993	
5254	52.530	-811.85919	4.48472	-642.17664	761.15540	8.56182	-635.15051	-728.70581	6.73238	495.71320	688.58118	11.45413	581.92578	-28.61847	740.75781	-962.56281	
5255	52.540	-812.57233	2.80401	-642.54980	759.93372	7.21391	-635.68951	-729.64398	7.69576	495.32626	687.89270	12.57364	581.57574	-29.43688	738.52496	-964.52960	
5256	52.550	-813.39191	1.05553	-642.79193	758.97766	5.65726	-635.89764	-730.43805	8.70553	495.16339	686.72046	13.89704	581.23651	-30.46138	736.36597	-966.31561	
5257	52.560	-814.72272	0.05176	-643.01257	758.26910	4.16434	-636.25775	-731.35449	9.69353	494.71106	685.78522	14.88104	580.88855	-31.61622	734.31866	-968.14508	
5258	52.570	-815.60901	-1.25711	-643.57159	757.07349	2.87683	-636.51245	-732.43250	10.64995	494.41797	684.88770	16.03066	580.57355	-32.60054	732.35651	-970.15747	
5259	52.580	-816.46368	-2.94937	-643.79773	755.89459	1.50141	-636.95422	-733.30963	11.43951	493.97977	683.87964	17.01546	580.18127	-33.21041	730.20477	-971.84552	
5260	52.590	-817.45166	-4.28683	-644.10913	755.51862	-0.02801	-637.26843	-734.25000	12.49750	493.79599	683.10364	18.29224	579.90649	-34.04563	728.19940	-973.79218	
5261	52.600	-818.16187	-5.66717	-644.40955	754.58667	-1.23973	-637.40356	-734.90680	13.37894	493.65607	682.32086	19.53113	579.56531	-34.93116	726.10846	-975.65503	
5262	52.610	-819.00824	-7.09088	-644.72943	753.56671	-2.85637	-637.84210	-736.02301	14.49823	492.87726	681.10284	20.49912	579.10803	-35.65846	723.95868	-977.54352	
5263	52.620	-820.18823	-8.36583	-644.95349	752.79816	-3.94524	-638.15540	-736.79834	15.43324	492.55270	680.42108	21.56130	578.80878	-37.13554	722.06384	-979.42950	
5264	52.630	-820.73083	-9.90925	-645.30475	751.96411	-5.53028	-638.48901	-737.53546	16.23377	492.20026	679.55554	22.50147	578.42188	-37.80030	719.78381	-981.26898	
5265	52.640	-821.51270	-11.17140	-645.47711	751.14862	-6.79137	-638.66278	-738.52679	17.38427	491.80972	678.53223	23.72858	578.02698	-38.48857	717.84613	-983.05933	
5266	52.650	-822.24908	-12.48734	-645.80225	750.39001	-8.15896	-638.83960	-739.12366	17.99846	491.74777	677.84650	24.61330	577.74811	-39.14609	715.64368	-984.70538	
5267	52.660	-822.89862	-14.06146	-646.03687	749.67426	-9.41129	-639.18878	-740.07452	19.02376	491.21207	677.03357	25.55519	577.30945	-39.91321	713.75305	-986.53125	
5268	52.670	-823.52045	-15.51376	-646.53241	748.97583	-10.76461	-639.40454	-740.79767	19.70100	490.99838	676.14374	26.52285	576.90765	-40.42622	711.75842	-987.89954	
5269	52.680	-824.46765	-16.63527	-646.75153	748.28619	-11.97263	-639.82971	-741.42969	20.79769	490.60999	675.49573	27.51654	576.57764	-41.13490	709.87421	-989.78387	
5270	52.690	-825.08661	-17.85119	-646.99316	747.47058	-13.38711	-640.13666	-742.09302	21.67340	490.48303	675.31262	29.14207	576.24713	-42.01158	707.81897	-991.18378	
5271	52.700	-825.86377	-19.30277	-647.13043	746.71429	-14.75772	-640.32056	-742.76129	22.55427	489.87747	674.60498	30.09827	575.89612	-42.60339	705.83679	-992.93231	
5272	52.710	-826.54388	-20.40272	-647.57813	746.26227	-15.93572	-640.63928	-743.31061	23.16695	489.95023	673.13678	30.45344	575.67853	-43.33075	703.97272	-994.46173	
5273	52.720	-827.03845	-21.67759	-647.62634	745.71082	-17.33042	-640.67145	-743.91064	24.12644	489.24011	673.41327	32.22849	575.34882	-43.90054	702.16632	-996.13373	
5274	52.730	-827.50787	-22.89613	-647.90326	745.12622	-18.56650	-640.89331	-744.46338	25.23930	488.95059	672.96991	33.19255	574.97021	-44.63964	700.29254	-997.86420	
5275	52.740	-828.06891	-24.35021	-648.09662	744.63037	-19.61315	-641.18140	-745.04895	25.87672	488.66959	672.32837	34.16595	574.57794	-45.00110	698.29541	-999.32727	
5276	52.750	-828.75183	-25.23894	-648.42065	743.96674	-21.12721	-641.65222	-745.57098	26.69446	488.24411	671.69763	35.09966	574.18433	-45.44702	696.44305	-1001.01190	
5277	52.760	-828.90887	-26.96530	-648.69739	743.51917	-22.25050	-641.67834	-746.21027	27.45090	487.92706	671.35327	36.07109	573.83746	-45.81232	694.55188	-1002.40338	
5278	52.770	-829.17291	-28.07845	-649.00403	742.98907	-23.29585	-642.17462	-746.46338	28.10106	487.66812	670.90894	36.93480	573.55695	-46.41891	692.83875	-1004.37463	
5279	52.780	-829.55829	-29.23434	-649.28735	742.74091	-24.61629	-642.26312	-746.89355	29.19641	487.35297	670.49750	37.94898	573.25085	-46.74700	690.88116	-1005.57629	
5280	52.790	-830.08130	-30.26641	-649.45721	742.61169	-25.68365	-642.58429	-747.12042	29.94504	487.19058	670.20819	38.93299	572.87134	-46.80022	689.03894	-1007.06097	
5281	52.800	-830.12000	-31.71556	-649.61334	742.05322	-26.83418	-642.71582	-747.54395	30.57647	486.70676	670.05817	39.68986	572.66333	-47.21828	687.48285	-1008.55756	
5282	52.810	-830.33551	-32.73936	-649.93964	741.95142	-27.93336	-642.91193	-747.81683	31.35163	486.42752	669.77026	40.70995	572.26538	-47.20065	685.60565	-1009.97388	
5283	52.820	-830.84436	-33.59245	-649.97131	741.89850	-28.98131	-642.95081	-747.89502	32.05454	486.12207	669.56989	41.46430	572.03546	-47.76121	683.92432	-1011.31757	
5284	52.830	-830.91467	-34.81226	-650.15253	741.74908	-30.31760	-643.18268	-748.03027	32.74535	485.87369	669.47418	42.34401	571.64453	-47.74604	682.17310	-1012.56464	
5285	52.840	-830.77148	-36.01023	-650.35059	741.74750	-31.06959	-643.41083	-748.08777	33.53137	485.68976	669.31958	43.25293	571.43164	-47.78526	680.70752	-1013.67267	
5286	52.850	-831.21161	-36.74532	-650.54736	741.69257	-32.20136	-643.56329	-748.19684	34.19236	485.34784	669.17908	43.90761	571.11603	-47.86094	679.13086	-1015.29199	
5287	52.860	-831.28497	-37.54823	-650.67413	741.66229	-33.14730	-643.63831	-748.37476	34.90410	485.02100	669.16711	44.70624	570.73334	-47.73274	677.39502	-1016.31140	
5288	52.870	-831.14435	-38.80410	-650.74884	741.64459	-34.27876	-643.95007	-748.26007	35.44310	484.63702	669.21606	45.61084	570.43024	-47.86073	675.77051	-1017.44745	
5289	52.880	-831.26184	-39.69884	-651.03729	741.67133	-35.21165	-644.01074	-748.06561	36.05393	484.43027	669.12561	46.36119	570.20264	-47.97770	674.65118	-1018.58435	
5290	52.890	-831.09784	-40.70427	-651.12012	741.61218	-36.17591	-644.15381	-748.06567	36.74030	484.35767	669.03772	47.19041	569.77106	-47.96671	672.84601	-1019.88696	
5291	52.900	-830.95331	-41.88313	-651.32123	741.78693	-36.98481	-644.34863	-748.25970	37.54181	483.82596	669.10388	47.76244	569.54639	-47.76927	671.33569	-1020.91748	
5292	52.910	-830.53870	-42.83913	-651.59961	741.94598	-37.92384	-644.48315	-748.17322	38.08762	483.58633	669.21460	48.42766	569.27094	-47.50990	670.04193	-1022.02795	
